<svg xmlns="http://www.w3.org/2000/svg" xmlns:xlink="http://www.w3.org/1999/xlink" x="0px" y="0px" width="48px" height="48px" viewBox="0 0 48 48"><g  transform="translate(0, 0)">
<path fill="#cfa144" d="M44.8,11.4C44.6,11.2,44.3,11,44,11H31V4c0-0.6-0.4-1-1-1H10C9.4,3,9,3.4,9,4v24c0,0.6,0.4,1,1,1h16.7&#10;&#9;l-9.3,6.2c-0.4,0.2-0.5,0.7-0.4,1.1c0.1,0.4,0.5,0.7,1,0.7h26c0.3,0,0.6-0.2,0.8-0.4c0.2-0.3,0.2-0.6,0.1-0.9L41.1,24l3.9-11.7&#10;&#9;C45.1,12,45,11.7,44.8,11.4z"/>
<path data-color="color-2" fill="#ffffff" d="M6,1C5.4,1,5,1.4,5,2v44c0,0.6,0.4,1,1,1s1-0.4,1-1V2C7,1.4,6.6,1,6,1z"/>
</g></svg>